<svg xmlns="http://www.w3.org/2000/svg" viewBox="0 0 410 404" fill="none">
  <path d="M399.641 59.524L215.643 388.545c-3.814 6.803-13.472 6.84-17.337.066L10.147 59.586c-4.162-7.286 2.066-16.116 10.245-14.575l184.318 34.778a9.66 9.66 0 003.586 0l180.95-34.726c8.164-1.567 14.42 7.219 10.395 14.46z" fill="#41D1FF"/>
  <path d="M292.965.781L156.412 27.535a4.83 4.83 0 00-3.899 4.064l-8.401 141.318a4.83 4.83 0 005.723 5.039l38.01-7.249a4.83 4.83 0 015.56 5.743l-11.292 55.268a4.83 4.83 0 005.957 5.67l23.473-7.208a4.83 4.83 0 016.019 5.984l-17.946 86.438c-1.123 5.41 6.065 8.361 9.049 3.714l1.994-3.11 111.232-221.99c1.863-3.718-1.353-7.97-5.461-7.194l-39.126 7.394a4.83 4.83 0 01-5.56-5.756l25.535-96.074c1.37-5.154-3.438-9.798-8.587-8.792z" fill="#BD34FE"/>
</svg>
